<svg version="1.1" id="Layer_1" xmlns="http://www.w3.org/2000/svg" xmlns:xlink="http://www.w3.org/1999/xlink" x="0px" y="0px"
	 width="100%" viewBox="0 0 512 512" enable-background="new 0 0 512 512" xml:space="preserve">
<path fill="#000000" opacity="1.000000" stroke="none" 
	d="
M345.000000,513.000000 
	C230.027939,513.000000 115.555870,513.000000 1.041900,513.000000 
	C1.041900,342.402924 1.041900,171.805817 1.041900,1.104355 
	C171.555405,1.104355 342.110901,1.104355 512.833191,1.104355 
	C512.833191,171.666534 512.833191,342.333252 512.833191,513.000000 
	C457.139069,513.000000 401.319550,513.000000 345.000000,513.000000 
M159.800842,458.998566 
	C168.155426,458.999023 176.509995,458.999756 184.864578,458.999939 
	C195.389221,459.000183 205.913864,459.000458 216.438507,458.999817 
	C223.134537,458.999390 229.836105,459.172180 236.525436,458.959930 
	C250.948318,458.502289 265.361328,459.798767 279.799194,457.157166 
	C305.902008,452.381195 329.527710,442.482452 349.906647,425.452209 
	C359.822693,417.165649 369.623444,408.561096 376.233093,397.182251 
	C381.691315,387.785675 387.693634,378.535645 391.725525,368.524200 
	C396.451599,356.789001 399.551025,344.326477 399.915955,331.490540 
	C400.100220,325.010010 399.693176,318.511047 399.494019,312.022247 
	C399.438843,310.224640 399.198883,308.430298 398.994324,306.640106 
	C398.511017,302.410675 398.390076,298.092865 397.426117,293.973785 
	C394.048340,279.540192 388.434570,266.040802 380.804169,253.249786 
	C371.717163,238.017090 360.095551,225.189011 345.703674,215.064026 
	C334.581207,207.239105 323.167786,199.653793 311.176147,193.296753 
	C302.541718,188.719421 292.874451,185.881592 283.412689,183.152710 
	C277.824249,181.540939 271.684265,181.955994 265.889801,180.916229 
	C257.893433,179.481369 250.224808,177.803635 242.829483,173.337616 
	C228.918961,164.937119 222.622314,152.409042 223.676239,137.572556 
	C224.600113,124.567093 232.270340,113.508911 244.472763,107.311386 
	C263.853699,97.467949 283.035370,98.041245 300.876160,111.082001 
	C310.317047,117.982811 315.579376,127.657578 316.005585,139.629929 
	C316.334137,148.859482 313.476318,156.971405 307.512787,163.985580 
	C305.701569,166.115921 303.747162,168.124527 301.906464,170.136292 
	C304.532654,171.197556 306.884430,171.879227 308.972076,173.037155 
	C319.049561,178.626602 329.108002,184.255539 339.044983,190.088867 
	C341.113190,191.302963 342.872986,192.199890 344.380829,190.000900 
	C346.752686,186.541748 348.964233,182.943588 350.921234,179.234192 
	C358.482056,164.903000 362.162354,150.010880 360.260101,133.453400 
	C358.790955,120.665543 355.088928,109.301300 348.297729,98.412788 
	C339.298126,83.983482 326.992706,73.742264 312.146942,65.973366 
	C299.767944,59.495323 285.779968,59.134499 272.781128,55.062435 
	C271.314423,54.602974 269.579346,55.000256 267.968719,55.000256 
	C267.969177,55.237106 267.969635,55.473957 267.970093,55.710808 
	C269.333649,55.934464 270.697205,56.158123 272.060760,56.381779 
	C259.374176,56.471825 247.226532,58.500443 235.408936,62.962238 
	C222.652069,67.778679 211.438004,75.022423 202.011841,84.688271 
	C194.500565,92.390533 188.966125,101.625038 184.758179,111.616570 
	C179.182648,124.855263 177.462357,138.783447 179.743088,152.680725 
	C181.299042,162.161636 184.861771,171.315994 190.135910,179.869827 
	C197.195633,191.319565 205.819595,201.206161 216.679932,208.712387 
	C232.017334,219.313004 249.254852,224.893265 268.163574,225.140518 
	C273.448822,225.209641 278.891998,226.422058 283.943390,228.081802 
	C291.652252,230.614716 299.306702,233.537231 306.586914,237.105087 
	C322.938354,245.118576 336.519257,256.602020 345.963013,272.289978 
	C355.691498,288.450806 360.880066,306.025116 359.996124,325.102692 
	C359.447601,336.940582 356.981323,348.250854 352.067932,359.165741 
	C344.366119,376.274902 332.662872,389.910461 317.184723,400.137878 
	C305.364868,407.948059 292.383057,412.966553 278.476990,416.683838 
	C267.133179,419.716217 255.934631,418.685852 244.771042,419.530579 
	C231.666306,420.522186 218.348038,418.515930 205.113571,418.073975 
	C201.031601,417.937653 196.916367,418.990082 192.824036,418.934387 
	C182.671448,418.796204 172.524796,418.115723 162.373032,418.045044 
	C141.049500,417.896698 119.724190,417.990448 98.399658,418.021057 
	C96.938652,418.023163 95.349457,418.008362 94.037437,418.539185 
	C82.364983,423.261719 77.121025,432.336151 80.283318,444.519562 
	C82.262207,452.143646 90.267799,458.532257 96.899475,458.528870 
	C104.866272,458.524811 112.833412,458.443573 120.799713,458.497589 
	C125.612343,458.530212 130.422882,458.803528 135.235794,458.881836 
	C140.088058,458.960785 144.942047,458.931793 149.795288,458.951141 
	C152.818970,458.963196 155.842651,458.977234 159.800842,458.998566 
M118.993286,270.445740 
	C113.298012,283.449066 109.782639,296.813110 108.615204,311.164734 
	C107.439896,325.613190 108.483383,339.521515 111.784027,353.485657 
	C116.025986,371.432312 124.576134,387.178497 135.267090,402.025238 
	C137.570679,405.224274 139.744522,406.111145 143.322937,406.062805 
	C155.484634,405.898529 167.649918,406.000000 179.813843,406.000000 
	C185.830887,406.000000 191.847946,406.000000 198.332840,406.000000 
	C197.750504,405.301178 197.273041,404.347260 196.501114,403.858276 
	C181.780975,394.534241 169.618057,382.994720 160.683548,367.651306 
	C150.026627,349.349854 145.697632,329.734802 148.652756,309.343872 
	C151.778625,287.774841 161.661377,268.589813 178.018295,253.712906 
	C188.505112,244.174957 200.156250,236.018646 214.124832,231.863037 
	C217.617828,230.823883 220.801498,228.744965 224.625885,226.903931 
	C210.066299,219.586029 197.784592,210.727036 188.434189,197.873886 
	C179.834290,203.649139 171.452881,209.448959 162.897354,214.979431 
	C152.384933,221.774857 143.702972,230.635696 136.433228,240.525497 
	C129.761230,249.602112 124.748718,259.898590 118.993286,270.445740 
M407.000000,463.613373 
	C407.000000,466.392181 407.000000,469.170990 407.000000,471.721741 
	C419.161407,459.993744 430.840271,448.731049 442.870148,437.129883 
	C430.157074,424.898132 418.057190,413.256378 405.484467,401.159668 
	C405.484467,407.849182 405.484467,413.387848 405.484467,419.000183 
	C395.812592,419.000183 386.653259,418.866699 377.500488,419.053375 
	C372.514771,419.155090 367.657440,419.317505 364.504669,424.741547 
	C362.531860,428.135437 359.195038,430.928864 356.002960,433.384247 
	C347.631622,439.823608 338.983246,445.901733 330.492279,452.187317 
	C328.129425,453.936371 325.930420,455.906769 323.656250,457.775604 
	C323.869080,458.183746 324.081909,458.591858 324.294708,459.000000 
	C325.891998,459.000000 327.490234,459.035858 329.086426,458.994324 
	C341.504150,458.671265 353.922974,458.378967 366.337921,457.969147 
	C369.597412,457.861511 372.848816,457.074524 376.096252,457.122406 
	C384.354584,457.244080 392.627319,458.132385 400.858093,457.804749 
	C406.927826,457.563110 406.902405,456.924744 407.000000,463.613373 
z"/>
<path fill="#0091EA" opacity="1.000000" stroke="none" 
	d="
M159.333588,458.994446 
	C155.842651,458.977234 152.818970,458.963196 149.795288,458.951141 
	C144.942047,458.931793 140.088058,458.960785 135.235794,458.881836 
	C130.422882,458.803528 125.612343,458.530212 120.799713,458.497589 
	C112.833412,458.443573 104.866272,458.524811 96.899475,458.528870 
	C90.267799,458.532257 82.262207,452.143646 80.283318,444.519562 
	C77.121025,432.336151 82.364983,423.261719 94.037437,418.539185 
	C95.349457,418.008362 96.938652,418.023163 98.399658,418.021057 
	C119.724190,417.990448 141.049500,417.896698 162.373032,418.045044 
	C172.524796,418.115723 182.671448,418.796204 192.824036,418.934387 
	C196.916367,418.990082 201.031601,417.937653 205.113571,418.073975 
	C218.348038,418.515930 231.666306,420.522186 244.771042,419.530579 
	C255.934631,418.685852 267.133179,419.716217 278.476990,416.683838 
	C292.383057,412.966553 305.364868,407.948059 317.184723,400.137878 
	C332.662872,389.910461 344.366119,376.274902 352.067932,359.165741 
	C356.981323,348.250854 359.447601,336.940582 359.996124,325.102692 
	C360.880066,306.025116 355.691498,288.450806 345.963013,272.289978 
	C336.519257,256.602020 322.938354,245.118576 306.586914,237.105087 
	C299.306702,233.537231 291.652252,230.614716 283.943390,228.081802 
	C278.891998,226.422058 273.448822,225.209641 268.163574,225.140518 
	C249.254852,224.893265 232.017334,219.313004 216.679932,208.712387 
	C205.819595,201.206161 197.195633,191.319565 190.135910,179.869827 
	C184.861771,171.315994 181.299042,162.161636 179.743088,152.680725 
	C177.462357,138.783447 179.182648,124.855263 184.758179,111.616570 
	C188.966125,101.625038 194.500565,92.390533 202.011841,84.688271 
	C211.438004,75.022423 222.652069,67.778679 235.408936,62.962238 
	C247.226532,58.500443 259.374176,56.471825 272.060760,56.381779 
	C270.697205,56.158123 269.333649,55.934464 267.970093,55.710808 
	C267.969635,55.473957 267.969177,55.237106 267.968719,55.000256 
	C269.579346,55.000256 271.314423,54.602974 272.781128,55.062435 
	C285.779968,59.134499 299.767944,59.495323 312.146942,65.973366 
	C326.992706,73.742264 339.298126,83.983482 348.297729,98.412788 
	C355.088928,109.301300 358.790955,120.665543 360.260101,133.453400 
	C362.162354,150.010880 358.482056,164.903000 350.921234,179.234192 
	C348.964233,182.943588 346.752686,186.541748 344.380829,190.000900 
	C342.872986,192.199890 341.113190,191.302963 339.044983,190.088867 
	C329.108002,184.255539 319.049561,178.626602 308.972076,173.037155 
	C306.884430,171.879227 304.532654,171.197556 301.906464,170.136292 
	C303.747162,168.124527 305.701569,166.115921 307.512787,163.985580 
	C313.476318,156.971405 316.334137,148.859482 316.005585,139.629929 
	C315.579376,127.657578 310.317047,117.982811 300.876160,111.082001 
	C283.035370,98.041245 263.853699,97.467949 244.472763,107.311386 
	C232.270340,113.508911 224.600113,124.567093 223.676239,137.572556 
	C222.622314,152.409042 228.918961,164.937119 242.829483,173.337616 
	C250.224808,177.803635 257.893433,179.481369 265.889801,180.916229 
	C271.684265,181.955994 277.824249,181.540939 283.412689,183.152710 
	C292.874451,185.881592 302.541718,188.719421 311.176147,193.296753 
	C323.167786,199.653793 334.581207,207.239105 345.703674,215.064026 
	C360.095551,225.189011 371.717163,238.017090 380.804169,253.249786 
	C388.434570,266.040802 394.048340,279.540192 397.426117,293.973785 
	C398.390076,298.092865 398.511017,302.410675 398.994324,306.640106 
	C399.198883,308.430298 399.438843,310.224640 399.494019,312.022247 
	C399.693176,318.511047 400.100220,325.010010 399.915955,331.490540 
	C399.551025,344.326477 396.451599,356.789001 391.725525,368.524200 
	C387.693634,378.535645 381.691315,387.785675 376.233093,397.182251 
	C369.623444,408.561096 359.822693,417.165649 349.906647,425.452209 
	C329.527710,442.482452 305.902008,452.381195 279.799194,457.157166 
	C265.361328,459.798767 250.948318,458.502289 236.525436,458.959930 
	C229.836105,459.172180 223.134537,458.999390 216.438507,458.999817 
	C205.913864,459.000458 195.389221,459.000183 184.864578,458.999939 
	C176.509995,458.999756 168.155426,458.999023 159.333588,458.994446 
z"/>
<path fill="#4EB2EF" opacity="1.000000" stroke="none" 
	d="
M118.999176,270.051666 
	C124.748718,259.898590 129.761230,249.602112 136.433228,240.525497 
	C143.702972,230.635696 152.384933,221.774857 162.897354,214.979431 
	C171.452881,209.448959 179.834290,203.649139 188.434189,197.873886 
	C197.784592,210.727036 210.066299,219.586029 224.625885,226.903931 
	C220.801498,228.744965 217.617828,230.823883 214.124832,231.863037 
	C200.156250,236.018646 188.505112,244.174957 178.018295,253.712906 
	C161.661377,268.589813 151.778625,287.774841 148.652756,309.343872 
	C145.697632,329.734802 150.026627,349.349854 160.683548,367.651306 
	C169.618057,382.994720 181.780975,394.534241 196.501114,403.858276 
	C197.273041,404.347260 197.750504,405.301178 198.332840,406.000000 
	C191.847946,406.000000 185.830887,406.000000 179.813843,406.000000 
	C167.649918,406.000000 155.484634,405.898529 143.322937,406.062805 
	C139.744522,406.111145 137.570679,405.224274 135.267090,402.025238 
	C124.576134,387.178497 116.025986,371.432312 111.784027,353.485657 
	C108.483383,339.521515 107.439896,325.613190 108.615204,311.164734 
	C109.782639,296.813110 113.298012,283.449066 118.999176,270.051666 
z"/>
<path fill="#4EB2EF" opacity="1.000000" stroke="none" 
	d="
M407.000000,463.150085 
	C406.902405,456.924744 406.927826,457.563110 400.858093,457.804749 
	C392.627319,458.132385 384.354584,457.244080 376.096252,457.122406 
	C372.848816,457.074524 369.597412,457.861511 366.337921,457.969147 
	C353.922974,458.378967 341.504150,458.671265 329.086426,458.994324 
	C327.490234,459.035858 325.891998,459.000000 324.294708,459.000000 
	C324.081909,458.591858 323.869080,458.183746 323.656250,457.775604 
	C325.930420,455.906769 328.129425,453.936371 330.492279,452.187317 
	C338.983246,445.901733 347.631622,439.823608 356.002960,433.384247 
	C359.195038,430.928864 362.531860,428.135437 364.504669,424.741547 
	C367.657440,419.317505 372.514771,419.155090 377.500488,419.053375 
	C386.653259,418.866699 395.812592,419.000183 405.484467,419.000183 
	C405.484467,413.387848 405.484467,407.849182 405.484467,401.159668 
	C418.057190,413.256378 430.157074,424.898132 442.870148,437.129883 
	C430.840271,448.731049 419.161407,459.993744 407.000000,471.721741 
	C407.000000,469.170990 407.000000,466.392181 407.000000,463.150085 
z"/>
</svg>